<?xml version="1.0" encoding="UTF-8"?>
<svg version="1.1" xmlns="http://www.w3.org/2000/svg" width="463" height="461">
<path d="M0 0 C3 11.625 3 11.625 3 15 C-24 27 -24 27 -51 39 C-51 39.33 -51 39.66 -51 40 C-32.19 42.64 -13.38 45.28 6 48 C6 57.67955801 6 57.67955801 4 60 C-0.2342681 61.76337129 -4.56517003 62.78259569 -9 64 C-4.71 64.99 -0.42 65.98 4 67 C3.34 71.95 2.68 76.9 2 82 C-11.45711612 81.3718243 -24.62417481 79.44105246 -37.9375 77.4375 C-40.18155966 77.10427198 -42.42569981 76.77158557 -44.66992188 76.43945312 C-50.11422431 75.63253903 -55.5574978 74.81896369 -61 74 C-60.88541307 72.56163249 -60.75790884 71.12429034 -60.625 69.6875 C-60.52058594 68.48673828 -60.52058594 68.48673828 -60.4140625 67.26171875 C-60 65 -60 65 -58 62 C-54.9609375 60.83203125 -54.9609375 60.83203125 -51.375 59.8125 C-50.18648438 59.46832031 -48.99796875 59.12414062 -47.7734375 58.76953125 C-46.85820312 58.51558594 -45.94296875 58.26164062 -45 58 C-49.29 57.34 -53.58 56.68 -58 56 C-57.90460938 54.81664062 -57.80921875 53.63328125 -57.7109375 52.4140625 C-56.81971068 41.10211935 -56.81971068 41.10211935 -58.52734375 29.9453125 C-59 28 -59 28 -59 24 C-56.69 23.01 -54.38 22.02 -52 21 C-52 19.68 -52 18.36 -52 17 C-54.97 17 -57.94 17 -61 17 C-61.50636607 15.25183142 -62.00484619 13.50137737 -62.5 11.75 C-62.7784375 10.77546875 -63.056875 9.8009375 -63.34375 8.796875 C-64 6 -64 6 -64 2 C-61.09123197 1.17365986 -58.45767332 0.85433614 -55.43774414 0.79467773 C-54.53903091 0.77473251 -53.64031769 0.75478729 -52.71437073 0.73423767 C-51.74772995 0.71752518 -50.78108917 0.70081268 -49.78515625 0.68359375 C-48.2750724 0.6524221 -48.2750724 0.6524221 -46.73448181 0.62062073 C-44.60029236 0.57738695 -42.46605763 0.5363413 -40.33178711 0.49731445 C-37.10585035 0.43829313 -33.88008792 0.37310848 -30.65429688 0.30664062 C-20.43551698 0.10186677 -10.22120449 -0.07869191 0 0 Z M-40 13 C-39.67 13.66 -39.34 14.32 -39 15 C-38.34 14.67 -37.68 14.34 -37 14 C-37.99 13.67 -38.98 13.34 -40 13 Z M-39 17 C-38.34 17.66 -37.68 18.32 -37 19 C-37 18.34 -37 17.68 -37 17 C-37.66 17 -38.32 17 -39 17 Z " fill="#000909" transform="translate(390,184)"/>
<path d="M0 0 C3.62097616 3.18016167 5.28460459 6.38033447 7.25 10.75 C10.17560635 16.99118522 13.66421423 21.53734281 19 26 C17.66666667 28.66666667 16.33333333 31.33333333 15 34 C15.66 34.66 16.32 35.32 17 36 C18.98 34.68 20.96 33.36 23 32 C26.45201639 33.47721422 28.64961936 35.43794001 31.25 38.125 C31.95640625 38.84945312 32.6628125 39.57390625 33.390625 40.3203125 C34.18726563 41.15175781 34.18726563 41.15175781 35 42 C33.55372643 45.61056567 31.87160765 47.0411098 28.58984375 49.06640625 C27.69048096 49.62900146 26.79111816 50.19159668 25.86450195 50.77124023 C24.89859131 51.36235596 23.93268066 51.95347168 22.9375 52.5625 C20.92930529 53.81449131 18.92149688 55.06710244 16.9140625 56.3203125 C15.91407227 56.94067383 14.91408203 57.56103516 13.88378906 58.20019531 C9.82838426 60.73121836 5.81891238 63.32991792 1.8125 65.9375 C1.12575195 66.3799707 0.43900391 66.82244141 -0.26855469 67.27832031 C-3.32510155 69.24802879 -6.36086501 71.23613669 -9.3515625 73.3046875 C-10.32867187 73.96726562 -11.30578125 74.62984375 -12.3125 75.3125 C-13.13363281 75.88613281 -13.95476562 76.45976562 -14.80078125 77.05078125 C-17 78 -17 78 -19.0546875 77.37890625 C-21.13103327 75.90711899 -22.97951514 74.3923833 -24.8125 72.625 C-25.43769531 72.03976562 -26.06289062 71.45453125 -26.70703125 70.8515625 C-28 69 -28 69 -27.74047852 67.13330078 C-26.92278637 64.77754939 -25.87092535 63.06032478 -24.4453125 61.015625 C-23.9184082 60.25330566 -23.39150391 59.49098633 -22.84863281 58.70556641 C-22.27983398 57.89522949 -21.71103516 57.08489258 -21.125 56.25 C-20.54073242 55.40743652 -19.95646484 54.56487305 -19.35449219 53.69677734 C-18.15230297 51.96328963 -16.94786526 50.23135915 -15.74121094 48.50097656 C-13.22589762 44.88812328 -10.73887719 41.25608525 -8.25 37.625 C-3.51631533 30.73870003 1.23797317 23.86672511 6 17 C2.34913542 17.69815161 -0.55340173 19.23299184 -3.8125 20.9921875 C-4.96202148 21.6102124 -6.11154297 22.2282373 -7.29589844 22.86499023 C-8.5306815 23.53484135 -9.76538043 24.20484759 -11 24.875 C-12.2579759 25.55376735 -13.51611501 26.23223229 -14.77441406 26.91040039 C-25.21648034 32.54560565 -35.6214303 38.2487419 -46 44 C-48.41622102 41.66600312 -50.05178522 39.44723383 -51.6875 36.5 C-52.34298828 35.33984375 -52.34298828 35.33984375 -53.01171875 34.15625 C-54 32 -54 32 -54 29 C-53.14583496 28.54786133 -52.29166992 28.09572266 -51.41162109 27.62988281 C-34.21621037 18.52484953 -17.04754946 9.38000662 0 0 Z M-1 50 C-2.485 51.98 -2.485 51.98 -4 54 C-2.68 53.34 -1.36 52.68 0 52 C-0.33 51.34 -0.66 50.68 -1 50 Z " fill="#000505" transform="translate(138,270)"/>
<path d="M0 0 C3.3582842 1.29568372 6.55519335 2.73415258 9.74609375 4.3984375 C10.65568848 4.87224854 11.5652832 5.34605957 12.50244141 5.83422852 C13.47101074 6.34268311 14.43958008 6.8511377 15.4375 7.375 C16.44216309 7.90085693 17.44682617 8.42671387 18.48193359 8.96850586 C45.65158109 23.23966719 45.65158109 23.23966719 55 29 C54.43123699 32.98134109 53.53491974 35.84173934 51 39 C47.64453125 39.70703125 47.64453125 39.70703125 43.8125 39.8125 C42.54019531 39.86019531 41.26789063 39.90789062 39.95703125 39.95703125 C38.98121094 39.97121094 38.00539063 39.98539062 37 40 C39.97 41.65 42.94 43.3 46 45 C45.16717288 49.16413559 44.33920962 51.65536612 42.4375 55.3125 C41.98246094 56.19550781 41.52742188 57.07851563 41.05859375 57.98828125 C40.70925781 58.65214844 40.35992187 59.31601562 40 60 C36.48648979 58.64946864 33.15597693 57.11778924 29.81640625 55.3828125 C28.81633545 54.86372314 27.81626465 54.34463379 26.78588867 53.80981445 C25.72217041 53.25382568 24.65845215 52.69783691 23.5625 52.125 C22.46462158 51.55289795 21.36674316 50.9807959 20.2355957 50.39135742 C10.11219182 45.09665362 0.07761156 39.64470392 -9.9230957 34.12231445 C-11.92921009 33.03825335 -13.95467284 32.00779635 -16 31 C-15.27911311 27.25138816 -14.12320155 24.18480232 -12 21 C-9.1703969 20.36295275 -7.14186274 20.11443282 -4.3125 20.125 C-3.2596582 20.0940625 -3.2596582 20.0940625 -2.18554688 20.0625 C-0.45754532 20.01547955 1.27136406 20.00425249 3 20 C-0.3 18.02 -3.6 16.04 -7 14 C-5.53967505 8.68972746 -3.01679014 4.53669968 0 0 Z " fill="#00FAFA" transform="translate(329,260)"/>
<path d="M0 0 C1.32 4.95 2.64 9.9 4 15 C2.68 15.99 1.36 16.98 0 18 C1.65 18 3.3 18 5 18 C5.99 22.95 6.98 27.9 8 33 C-3.37325683 36.11038589 -14.79877835 38.9061323 -26.28344727 41.57421875 C-29.22205396 42.2580408 -32.15887582 42.94920582 -35.09570312 43.640625 C-36.97385488 44.07856891 -38.85210644 44.51608507 -40.73046875 44.953125 C-41.6033403 45.15931458 -42.47621185 45.36550415 -43.37553406 45.57794189 C-44.18770889 45.76523865 -44.99988373 45.9525354 -45.83666992 46.14550781 C-46.54643478 46.31109192 -47.25619965 46.47667603 -47.98747253 46.64727783 C-50 47 -50 47 -54 47 C-54.67662 44.31466436 -55.34146121 41.627275 -56 38.9375 C-56.19078125 38.18533203 -56.3815625 37.43316406 -56.578125 36.65820312 C-58.28094094 29.63408738 -59.07474772 23.41320171 -55.5390625 16.86328125 C-51.8728887 12.42479165 -45.58041115 10.02518917 -40 9 C-38.00169711 8.90768709 -36.00042773 8.86999893 -34 8.875 C-32.96875 8.87242187 -31.9375 8.86984375 -30.875 8.8671875 C-28 9 -28 9 -26.14111328 9.63891602 C-23.1525985 10.14290842 -21.5825928 9.20725377 -18.8671875 7.91015625 C-17.89652344 7.45576172 -16.92585938 7.00136719 -15.92578125 6.53320312 C-14.41564453 5.80520508 -14.41564453 5.80520508 -12.875 5.0625 C-10.87386356 4.11278658 -8.8713269 3.16601614 -6.8671875 2.22265625 C-5.98144043 1.79734619 -5.09569336 1.37203613 -4.18310547 0.93383789 C-2 0 -2 0 0 0 Z M-42 27 C-39.21176345 28.0326802 -38.1322726 28.04509293 -35.25 27.0625 C-34.5075 26.711875 -33.765 26.36125 -33 26 C-33 25.67 -33 25.34 -33 25 C-36.62528568 24.79859524 -38.86501708 25.14223235 -42 27 Z " fill="#00FAFA" transform="translate(129,235)"/>
<path d="M0 0 C2.12744999 0.78505901 4.25189674 1.5782606 6.375 2.375 C7.55835938 2.81585938 8.74171875 3.25671875 9.9609375 3.7109375 C13 5 13 5 15 7 C13.40324761 11.01706024 11.80398763 15.03311125 10.20263672 19.04833984 C9.66097151 20.40745614 9.11993109 21.76682164 8.57958984 23.12646484 C4.86108831 32.48157765 1.0126277 41.76681585 -3 51 C-2.34 51 -1.68 51 -1 51 C-0.85377197 50.44997314 -0.70754395 49.89994629 -0.55688477 49.33325195 C1.68831798 41.36063968 4.85040075 33.80558456 8.0625 26.1875 C8.61049304 24.8784506 9.15802197 23.56920682 9.70507812 22.25976562 C10.70681802 19.86227816 11.71170204 17.46621506 12.71899414 15.07104492 C13.83739324 12.38982856 14.92961289 9.70067385 16 7 C19.66172475 7.62678171 22.8818995 8.64451846 26.3125 10.0625 C27.19550781 10.42472656 28.07851563 10.78695312 28.98828125 11.16015625 C29.65214844 11.43730469 30.31601562 11.71445313 31 12 C30.40583199 16.52095462 29.21881877 20.30986028 27.453125 24.5078125 C27.20004578 25.11454803 26.94696655 25.72128357 26.68621826 26.34640503 C25.88010672 28.27516682 25.06527595 30.20009669 24.25 32.125 C23.7181609 33.39298224 23.18690631 34.6612098 22.65625 35.9296875 C21.61304703 38.42180809 20.56417496 40.91143289 19.51171875 43.3996582 C18.52088853 45.75944071 17.54379149 48.12504725 16.58203125 50.49682617 C16.14761719 51.56650635 15.71320313 52.63618652 15.265625 53.73828125 C14.88696289 54.68227783 14.50830078 55.62627441 14.11816406 56.59887695 C12.61892189 59.81831949 10.79623373 61.83291886 8 64 C7.236875 64.598125 6.47375 65.19625 5.6875 65.8125 C1.29925355 67.75149262 -2.62921568 67.77422292 -7.1171875 66.30859375 C-11.925078 64.14050728 -15.16902802 61.54671257 -18 57 C-22.8447578 41.44577757 -7.02514472 14.05028943 0 0 Z " fill="#00F9F9" transform="translate(273,73)"/>
<path d="M0 0 C5.28 0.66 10.56 1.32 16 2 C16.33 3.65 16.66 5.3 17 7 C17.33 5.68 17.66 4.36 18 3 C23.28 3.33 28.56 3.66 34 4 C32.7512507 16.99296 31.35198611 29.95960784 29.76782227 42.91601562 C29.4300992 45.68569418 29.09876647 48.45609575 28.76757812 51.2265625 C28.55246417 52.99744214 28.33698422 54.76827736 28.12109375 56.5390625 C28.02316025 57.36282379 27.92522675 58.18658508 27.82432556 59.03530884 C27.11454705 64.7709059 27.11454705 64.7709059 26 67 C23.14396497 66.74310796 20.29102682 66.46996134 17.4375 66.1875 C16.23770508 66.08211914 16.23770508 66.08211914 15.01367188 65.97460938 C9.17709085 65.37903988 3.84856868 64.45257931 -0.7421875 60.5 C-5.79494159 53.80945665 -5.67544146 47.57452953 -4.69140625 39.453125 C-3.97698007 35.68500108 -3.43625343 33.50040835 -0.875 30.5625 C2.0764423 26.52886219 1.30944891 22.85192535 1 18 C0.91910254 16.44929476 0.83980565 14.89850556 0.76171875 13.34765625 C0.53148243 8.89685922 0.27136632 4.44846936 0 0 Z M12 40 C10.5216774 42.95664519 10.93967217 45.74229737 11 49 C11.66 49 12.32 49 13 49 C13.33 46.03 13.66 43.06 14 40 C13.34 40 12.68 40 12 40 Z " fill="#00FAFA" transform="translate(202,326)"/>
<path d="M0 0 C8.29734323 5.82579418 13.55416063 14.6597627 18.9375 23.0625 C19.59363281 24.02929688 20.24976563 24.99609375 20.92578125 25.9921875 C28.57956998 37.43325471 28.57956998 37.43325471 27.62109375 44.34375 C26.05938738 50.23698158 23.05294409 53.8072174 17.9375 57.0625 C12.49182938 58.87772354 7.00927323 58.9968291 1.75 56.625 C-5.36629189 50.14126739 -10.55813421 41.60771248 -15.9375 33.6875 C-16.61296875 32.70394531 -17.2884375 31.72039062 -17.984375 30.70703125 C-18.62632812 29.76472656 -19.26828125 28.82242188 -19.9296875 27.8515625 C-20.50831543 27.00287598 -21.08694336 26.15418945 -21.68310547 25.27978516 C-24.50336333 20.74640783 -24.79315605 16.25267744 -24.0625 11.0625 C-22.06785889 5.96408999 -18.96543898 2.10805832 -14.01953125 -0.31640625 C-9.20069993 -1.84573595 -4.77691065 -1.46231959 0 0 Z M-8.0625 15.0625 C-6.54527128 19.53832473 -4.08434787 23.10172354 -1.3125 26.875 C-0.86729004 27.48939941 -0.42208008 28.10379883 0.03662109 28.73681641 C3.28947304 33.21435473 6.58873168 37.65622589 9.9375 42.0625 C10.5975 41.7325 11.2575 41.4025 11.9375 41.0625 C11.60540527 40.59465088 11.27331055 40.12680176 10.93115234 39.64477539 C9.39029038 37.47244329 7.85124973 35.29882878 6.3125 33.125 C5.76287598 32.34970947 5.21325195 31.57441895 4.64697266 30.77563477 C1.319348 26.0673369 -1.9241405 21.32671871 -4.9765625 16.43359375 C-5.33492187 15.98113281 -5.69328125 15.52867188 -6.0625 15.0625 C-6.7225 15.0625 -7.3825 15.0625 -8.0625 15.0625 Z " fill="#00F9F9" transform="translate(150.0625,94.9375)"/>
<path d="M0 0 C4.16139739 1.63338236 7.08008275 3.90203425 9.9375 7.3125 C12.83262545 14.63546437 11.98598858 19.21149958 9.203125 26.38671875 C7.97423602 29.05596137 6.56005858 31.51197554 5 34 C-0.75 32.125 -0.75 32.125 -3 31 C-2.505 31.928125 -2.505 31.928125 -2 32.875 C0.07376631 39.35551971 -0.24623687 45.10560428 -3.0625 51.3125 C-5.59094279 55.78481525 -8.08939125 59.15737007 -13 61 C-18.57914605 62.00074369 -23.44362349 61.74189707 -28.4375 58.9375 C-33.17166474 55.48651749 -35.51012105 51.72154972 -36.5625 45.875 C-35.69514356 39.89987784 -33.33360807 34.54231916 -31 29 C-30.05125 29.33 -29.1025 29.66 -28.125 30 C-25.22937548 31.10159191 -25.22937548 31.10159191 -23 31 C-23.15726563 30.44570313 -23.31453125 29.89140625 -23.4765625 29.3203125 C-25.21623939 21.60861049 -24.34490256 15.05112167 -20.50390625 8.16796875 C-15.19764046 0.51867651 -8.95149753 -1.07369714 0 0 Z M-6 16 C-8.30671915 18.71549154 -8.30671915 18.71549154 -7.625 21.1875 C-7.41875 21.785625 -7.2125 22.38375 -7 23 C-6.01 20.69 -5.02 18.38 -4 16 C-4.66 16 -5.32 16 -6 16 Z M-18 39 C-18.66 40.98 -19.32 42.96 -20 45 C-19.34 45 -18.68 45 -18 45 C-17.67 43.02 -17.34 41.04 -17 39 C-17.33 39 -17.66 39 -18 39 Z " fill="#00F8F8" transform="translate(186,317)"/>
<path d="M0 0 C5.07228861 3.09285891 8.87998012 6.71517932 13 11 C12.01 13.97 11.02 16.94 10 20 C10.886875 19.484375 11.77375 18.96875 12.6875 18.4375 C16.39112093 16.83026828 17.27241326 16.75747109 21 18 C23.67578125 20.06640625 23.67578125 20.06640625 26.3125 22.5625 C27.63701172 23.80193359 27.63701172 23.80193359 28.98828125 25.06640625 C29.98408203 26.02353516 29.98408203 26.02353516 31 27 C28.53482558 29.80444716 25.89251066 31.2338381 22.5625 32.8828125 C21.50289063 33.41003906 20.44328125 33.93726563 19.3515625 34.48046875 C18.24554688 35.02316406 17.13953125 35.56585938 16 36.125 C14.89398438 36.67542969 13.78796875 37.22585937 12.6484375 37.79296875 C4.46416823 41.84527726 4.46416823 41.84527726 1 43 C0.11211228 44.97234921 0.11211228 44.97234921 -0.43359375 47.40234375 C-1.95162363 52.9552674 -3.91986241 58.22379447 -6.0625 63.5625 C-6.41376953 64.46291016 -6.76503906 65.36332031 -7.12695312 66.29101562 C-7.46791016 67.14501953 -7.80886719 67.99902344 -8.16015625 68.87890625 C-8.46574463 69.6479126 -8.77133301 70.41691895 -9.08618164 71.20922852 C-10 73 -10 73 -12 74 C-22.29463821 65.32951588 -22.29463821 65.32951588 -24 62 C-23.40221456 59.12416732 -22.32286742 56.61331162 -21 54 C-22.60875 55.051875 -22.60875 55.051875 -24.25 56.125 C-26.078125 57.3203125 -26.078125 57.3203125 -28 58 C-31.55403623 56.8535367 -34.02708373 54.35765896 -36.75 51.875 C-37.54921875 51.15054688 -38.3484375 50.42609375 -39.171875 49.6796875 C-39.77515625 49.12539062 -40.3784375 48.57109375 -41 48 C-40 45 -40 45 -37.58251953 43.78686523 C-36.52661621 43.38153564 -35.47071289 42.97620605 -34.3828125 42.55859375 C-17.60935239 35.51431736 -17.60935239 35.51431736 -7.26708984 20.96704102 C-5.62042844 16.59579902 -4.09284386 12.2240062 -2.80834961 7.73217773 C-2.02205589 5.07454772 -1.06846461 2.55552998 0 0 Z " fill="#00F9F9" transform="translate(322,96)"/>
<path d="M0 0 C4.13780847 3.22950905 7.54765816 6.63904915 10.94921875 10.62890625 C13.40888855 13.47275305 15.95042525 16.23713314 18.5 19 C22.13717175 22.95003354 25.72675131 26.93330224 29.2421875 30.9921875 C32.11140764 34.2694745 35.05135327 37.48295429 37.984375 40.703125 C43 46.41860465 43 46.41860465 43 49 C40.515625 50.796875 40.515625 50.796875 37.25 52.75 C36.18265625 53.40484375 35.1153125 54.0596875 34.015625 54.734375 C31 56 31 56 28.90625 55.5546875 C26.29706093 53.42670134 24.33707681 51.01453832 22.25 48.375 C21.45078125 47.37210937 20.6515625 46.36921875 19.828125 45.3359375 C19.22484375 44.56507813 18.6215625 43.79421875 18 43 C18.29003906 43.96099609 18.29003906 43.96099609 18.5859375 44.94140625 C20.0940748 49.95110985 21.57717786 54.96539857 23 60 C21.60823368 60.96423026 20.2113777 61.92111602 18.8125 62.875 C18.03519531 63.40867187 17.25789063 63.94234375 16.45703125 64.4921875 C14.02874231 65.98236163 11.65119878 66.97659479 9 68 C6.07937973 60.87141335 3.40382692 53.67948272 0.85546875 46.41015625 C0.4814241 45.34381454 0.10737946 44.27747284 -0.27799988 43.17881775 C-1.05999584 40.9448054 -1.84060278 38.71030639 -2.61987305 36.4753418 C-3.41983608 34.18615384 -4.22392443 31.89840362 -5.03198242 29.61206055 C-6.20332986 26.29777923 -7.36279718 22.97956172 -8.51953125 19.66015625 C-8.88399857 18.63519547 -9.24846588 17.61023468 -9.62397766 16.55421448 C-9.95149521 15.60570114 -10.27901276 14.65718781 -10.61645508 13.67993164 C-10.90861404 12.84627579 -11.20077301 12.01261993 -11.50178528 11.15370178 C-12 9 -12 9 -11 6 C-8.49609375 4.39453125 -8.49609375 4.39453125 -5.4375 2.8125 C-4.42558594 2.28269531 -3.41367187 1.75289063 -2.37109375 1.20703125 C-1.58863281 0.80871094 -0.80617188 0.41039062 0 0 Z " fill="#00F9F9" transform="translate(289,311)"/>
<path d="M0 0 C2.19621534 9.96912312 4.37955699 19.94098887 6.54711914 29.91638184 C6.97156799 31.86918975 7.39688564 33.82180877 7.82226562 35.77441406 C8.5344362 39.05647148 9.2377536 42.34027444 9.9375 45.625 C10.14850342 46.59373047 10.35950684 47.56246094 10.5769043 48.56054688 C11.53853687 53.12024381 12.25717587 57.3084886 12 62 C8.29394995 62.84371205 4.58483619 63.6731088 0.875 64.5 C-0.69507813 64.85771484 -0.69507813 64.85771484 -2.296875 65.22265625 C-3.31523437 65.44824219 -4.33359375 65.67382812 -5.3828125 65.90625 C-6.31496582 66.11572266 -7.24711914 66.32519531 -8.20751953 66.54101562 C-11.18407693 67.03025569 -13.98883181 67.07770757 -17 67 C-18.91626837 62.01770224 -19.5547115 57.27315333 -20 52 C-19.14535156 51.79503906 -18.29070312 51.59007812 -17.41015625 51.37890625 C-16.30542969 51.10949219 -15.20070312 50.84007812 -14.0625 50.5625 C-12.96035156 50.29566406 -11.85820312 50.02882813 -10.72265625 49.75390625 C-8.10578746 49.27004275 -8.10578746 49.27004275 -7 48 C-7 46.35 -7 44.7 -7 43 C-12.445 43.495 -12.445 43.495 -18 44 C-20.14285714 33.95535714 -20.14285714 33.95535714 -20 29 C-14.375 27 -14.375 27 -11 27 C-11.33 24.36 -11.66 21.72 -12 19 C-12.66386719 19.144375 -13.32773438 19.28875 -14.01171875 19.4375 C-14.89472656 19.623125 -15.77773437 19.80875 -16.6875 20 C-17.55761719 20.185625 -18.42773438 20.37125 -19.32421875 20.5625 C-22 21 -22 21 -27 21 C-27.99 16.05 -28.98 11.1 -30 6 C-6.57142857 0 -6.57142857 0 0 0 Z " fill="#00F8F8" transform="translate(267,324)"/>
<path d="M0 0 C5.28 0.33 10.56 0.66 16 1 C15.67 5.95 15.34 10.9 15 16 C17.31 16.33 19.62 16.66 22 17 C22 13.7 22 10.4 22 7 C27.48677955 6.91558801 32.59280411 7.07962623 38 8 C38 10.97 38 13.94 38 17 C40.64 17.66 43.28 18.32 46 19 C46.33 14.38 46.66 9.76 47 5 C52.53728054 4.92517188 57.54117674 5.0461911 63 6 C62.6937956 10.43795812 62.37896458 14.87526265 62.0625 19.3125 C61.97548828 20.57513672 61.88847656 21.83777344 61.79882812 23.13867188 C61.71181641 24.34716797 61.62480469 25.55566406 61.53515625 26.80078125 C61.456604 27.91622314 61.37805176 29.03166504 61.29711914 30.1809082 C61 33 61 33 60 36 C47.94732347 35.39347564 35.94971468 34.42892435 23.93798828 33.27050781 C21.08020103 32.99569196 18.2217942 32.72808824 15.36328125 32.4609375 C13.53641774 32.2868839 11.7095932 32.11242063 9.8828125 31.9375 C9.03292755 31.85830322 8.1830426 31.77910645 7.30740356 31.69750977 C4.05064073 31.37928407 1.11538139 31.03846046 -2 30 C-2.40820882 19.90817093 -1.16108676 10.00400644 0 0 Z " fill="#00F9F9" transform="translate(69,198)"/>
<path d="M0 0 C3.50023856 0.14042495 7.00012399 0.28833226 10.5 0.4375 C11.48226562 0.47681641 12.46453125 0.51613281 13.4765625 0.55664062 C19.0373059 0.79760617 24.48855309 1.21921169 30 2 C30.02725341 3.7290774 30.04650987 5.45828176 30.0625 7.1875 C30.07410156 8.15042969 30.08570313 9.11335938 30.09765625 10.10546875 C30 13 30 13 29 18 C22.07 17.505 22.07 17.505 15 17 C15 18.98 15 20.96 15 23 C17.97 23.33 20.94 23.66 24 24 C24 29.28 24 34.56 24 40 C19.05 40.495 19.05 40.495 14 41 C13.67 43.31 13.34 45.62 13 48 C19.93 48.495 19.93 48.495 27 49 C27 54.28 27 59.56 27 65 C23.33313346 64.85827078 19.66656198 64.71174645 16 64.5625 C14.97003906 64.52318359 13.94007813 64.48386719 12.87890625 64.44335938 C11.86699219 64.40146484 10.85507813 64.35957031 9.8125 64.31640625 C8.89082031 64.27974854 7.96914062 64.24309082 7.01953125 64.20532227 C3.31909394 63.95369971 -0.32298829 63.48554525 -4 63 C-3.59506401 55.31342345 -3.18565754 47.6270942 -2.77319336 39.94091797 C-2.63349978 37.32801666 -2.49481657 34.71506113 -2.35717773 32.10205078 C-2.15876834 28.33871872 -1.95668481 24.57559886 -1.75390625 20.8125 C-1.6934462 19.65073242 -1.63298615 18.48896484 -1.57069397 17.29199219 C-1.25415037 11.48457433 -0.81529074 5.75933688 0 0 Z " fill="#00F7F7" transform="translate(222,67)"/>
<path d="M0 0 C-0.02618408 1.23862793 -0.05236816 2.47725586 -0.0793457 3.75341797 C-0.17124298 8.43877409 -0.22774562 13.12405445 -0.2746582 17.81005859 C-0.29948987 19.82126345 -0.33336741 21.83238118 -0.37719727 23.84326172 C-0.63818063 36.14325419 0.07722799 46.93792748 3.91723633 58.68017578 C5 62 5 62 5 64 C-0.28 65.32 -5.56 66.64 -11 68 C-11.34289062 66.52273437 -11.68578125 65.04546875 -12.0390625 63.5234375 C-15.78394069 48.61077545 -21.54894762 37.06787891 -30.30517578 24.49316406 C-38 13.17372515 -38 13.17372515 -38 10 C-35.89748139 9.32815382 -33.79292237 8.66269032 -31.6875 8 C-30.51574219 7.62875 -29.34398437 7.2575 -28.13671875 6.875 C-25 6 -25 6 -22 6 C-20.02002775 8.4986692 -18.60045753 11.23164104 -17 14 C-16.67 10.7 -16.34 7.4 -16 4 C-13.89748139 3.32815382 -11.79292237 2.66269032 -9.6875 2 C-8.51574219 1.62875 -7.34398437 1.2575 -6.13671875 0.875 C-3 0 -3 0 0 0 Z " fill="#00F9F9" transform="translate(203,69)"/>
<path d="M0 0 C5.67224413 3.07340718 10.77669427 6.63734682 15.9375 10.5 C16.75927734 11.11222412 17.58105469 11.72444824 18.42773438 12.35522461 C20.12058582 13.61688112 21.81247969 14.87982349 23.50341797 16.14404297 C25.88753258 17.91639182 28.28617954 19.6666094 30.69140625 21.41015625 C32.12767334 22.46084295 33.56387461 23.51161962 35 24.5625 C35.66378662 25.03816406 36.32757324 25.51382813 37.01147461 26.00390625 C41.4950332 29.31209464 44.48635746 32.11324927 45.50390625 37.83203125 C45.63142601 44.31853634 45.10065171 48.51357332 40.6953125 53.44140625 C36.18323672 57.58960496 31.74877989 58.71885893 25.73828125 58.5546875 C20.46366712 57.48622073 16.05061546 54.45990071 12 51 C11.34 49.68 10.68 48.36 10 47 C12.64 43.37 15.28 39.74 18 36 C21.56679337 36.89169834 22.95603121 37.4670234 25.75 39.5625 C26.36359375 40.01753906 26.9771875 40.47257812 27.609375 40.94140625 C28.29773438 41.46541016 28.29773438 41.46541016 29 42 C25.9202133 38.71984164 22.62274517 36.19896146 18.9375 33.625 C17.70373702 32.7522768 16.47070751 31.87851609 15.23828125 31.00390625 C14.56877441 30.52969238 13.89926758 30.05547852 13.20947266 29.56689453 C9.00176965 26.58291244 4.80540926 23.58462428 0.625 20.5625 C-0.22586182 19.95937988 -1.07672363 19.35625977 -1.95336914 18.73486328 C-2.7396167 18.16364746 -3.52586426 17.59243164 -4.3359375 17.00390625 C-5.04282715 16.49674072 -5.7497168 15.9895752 -6.47802734 15.46704102 C-6.98027832 14.98291748 -7.4825293 14.49879395 -8 14 C-8 9.96618977 -6.40426438 8.50566363 -4 5.3125 C-3.2575 4.31863281 -2.515 3.32476562 -1.75 2.30078125 C-1.1725 1.54152344 -0.595 0.78226562 0 0 Z " fill="#000404" transform="translate(104,123)"/>
<path d="M0 0 C11.49681002 0.6930377 22.85641642 2.43925583 34.25 4.0625 C36.26688341 4.34731467 38.28381018 4.63182241 40.30078125 4.91601562 C45.20102811 5.60713869 50.10066901 6.30241525 55 7 C55 8.65 55 10.3 55 12 C46.25278049 15.84705723 37.173997 18.40318414 28 21 C28 21.33 28 21.66 28 22 C36.25 23.32 44.5 24.64 53 26 C52.67 28.64 52.34 31.28 52 34 C39.87689974 33.47088627 28.04179308 31.80573133 16.0625 29.9375 C14.20386453 29.65241728 12.34514094 29.36790844 10.48632812 29.08398438 C5.9898449 28.39591662 1.49461601 27.70015668 -3 27 C-3 25.35 -3 23.7 -3 22 C2.53408193 19.49952608 8.13722241 17.59889728 13.9375 15.8125 C14.81212891 15.53986328 15.68675781 15.26722656 16.58789062 14.98632812 C18.72425516 14.32090311 20.86160862 13.65887646 23 13 C23 12.67 23 12.34 23 12 C22.06933716 11.87153687 22.06933716 11.87153687 21.11987305 11.74047852 C18.30866566 11.3507567 15.49808577 10.9566787 12.6875 10.5625 C11.71103516 10.42779297 10.73457031 10.29308594 9.72851562 10.15429688 C8.79072266 10.02216797 7.85292969 9.89003906 6.88671875 9.75390625 C6.02264404 9.63345947 5.15856934 9.5130127 4.26831055 9.38891602 C2 9 2 9 -1 8 C-0.67 5.36 -0.34 2.72 0 0 Z " fill="#00FBFB" transform="translate(337,228)"/>
<path d="M0 0 C3.4534417 1.48108873 5.64921326 3.42821699 8.265625 6.10546875 C9.07386719 6.92466797 9.88210938 7.74386719 10.71484375 8.58789062 C11.55144531 9.44576172 12.38804687 10.30363281 13.25 11.1875 C18.37227636 16.41833324 23.49753967 21.52178126 29.05761719 26.28686523 C32.52621348 29.34608346 35.75204171 32.64757008 39 35.9375 C39.67933594 36.62134766 40.35867188 37.30519531 41.05859375 38.00976562 C42.70808359 39.67087159 44.3551668 41.33428513 46 43 C44.39464713 46.41059403 42.59481099 48.61792484 39.875 51.25 C39.15054688 51.95640625 38.42609375 52.6628125 37.6796875 53.390625 C37.12539063 53.92171875 36.57109375 54.4528125 36 55 C32.24689118 53.44234073 29.90582087 51.1220056 27.078125 48.23828125 C26.61444519 47.76939987 26.15076538 47.30051849 25.67303467 46.81742859 C24.19382975 45.32048402 22.72147299 43.81704251 21.25 42.3125 C19.32120694 40.34678763 17.38915199 38.38436962 15.453125 36.42578125 C14.98277832 35.94989059 14.51243164 35.47399994 14.02783203 34.98368835 C10.74234355 31.68429232 7.33502698 28.58886321 3.79589844 25.56665039 C0.89372255 23.03493986 -1.80048004 20.30678241 -4.5 17.5625 C-5.03625 17.02173828 -5.5725 16.48097656 -6.125 15.92382812 C-7.41904036 14.61823383 -8.70988174 13.30947004 -10 12 C-9.61328125 11.55269531 -9.2265625 11.10539062 -8.828125 10.64453125 C-5.81609925 7.1478974 -2.85678969 3.62592537 0 0 Z " fill="#000303" transform="translate(309,292)"/>
<path d="M0 0 C1.98 1.65 3.96 3.3 6 5 C5.690625 5.721875 5.38125 6.44375 5.0625 7.1875 C3.59113738 10.9998272 3.59113738 10.9998272 3 15 C4.5 17.5 4.5 17.5 7 19 C10.39154295 18.83849795 11.58296757 18.41703243 14 16 C16.83339941 16.18279996 17.82835545 16.82243667 19.8125 18.875 C20.204375 19.57625 20.59625 20.2775 21 21 C19.61795487 25.14613538 16.77406802 26.24918368 13.1875 28.375 C11.72929454 29.26109137 10.27232151 30.14921318 8.81640625 31.0390625 C8.03797363 31.51375977 7.25954102 31.98845703 6.45751953 32.47753906 C1.3018268 35.67154858 -3.75191031 39.02572393 -8.81958008 42.35693359 C-14.46310249 46.05014224 -20.19365695 49.56863065 -26 53 C-28.97 49.535 -28.97 49.535 -32 46 C-31.59386475 45.41847168 -31.18772949 44.83694336 -30.76928711 44.23779297 C-22.31193474 32.12131702 -13.9008535 19.97750108 -5.61108398 7.74560547 C-5.01884033 6.87307129 -4.42659668 6.00053711 -3.81640625 5.1015625 C-3.29506104 4.33150879 -2.77371582 3.56145508 -2.23657227 2.76806641 C-1 1 -1 1 0 0 Z M-9 29 C-10.485 30.98 -10.485 30.98 -12 33 C-10.68 32.34 -9.36 31.68 -8 31 C-8.33 30.34 -8.66 29.68 -9 29 Z " fill="#00FAFA" transform="translate(146,291)"/>
<path d="M0 0 C2.12744999 0.78505901 4.25189674 1.5782606 6.375 2.375 C7.55835938 2.81585938 8.74171875 3.25671875 9.9609375 3.7109375 C13 5 13 5 15 7 C13.40324761 11.01706024 11.80398763 15.03311125 10.20263672 19.04833984 C9.66097151 20.40745614 9.11993109 21.76682164 8.57958984 23.12646484 C4.86108831 32.48157765 1.0126277 41.76681585 -3 51 C-2.34 51 -1.68 51 -1 51 C-0.85377197 50.44997314 -0.70754395 49.89994629 -0.55688477 49.33325195 C1.68831798 41.36063968 4.85040075 33.80558456 8.0625 26.1875 C8.61049304 24.8784506 9.15802197 23.56920682 9.70507812 22.25976562 C10.70681802 19.86227816 11.71170204 17.46621506 12.71899414 15.07104492 C13.83739324 12.38982856 14.92961289 9.70067385 16 7 C19.66172475 7.62678171 22.8818995 8.64451846 26.3125 10.0625 C27.19550781 10.42472656 28.07851563 10.78695312 28.98828125 11.16015625 C29.65214844 11.43730469 30.31601562 11.71445313 31 12 C30.40583199 16.52095462 29.21881877 20.30986028 27.453125 24.5078125 C27.20004578 25.11454803 26.94696655 25.72128357 26.68621826 26.34640503 C25.88010672 28.27516682 25.06527595 30.20009669 24.25 32.125 C23.7181609 33.39298224 23.18690631 34.6612098 22.65625 35.9296875 C21.61304703 38.42180809 20.56417496 40.91143289 19.51171875 43.3996582 C18.52088853 45.75944071 17.54379149 48.12504725 16.58203125 50.49682617 C16.14761719 51.56650635 15.71320313 52.63618652 15.265625 53.73828125 C14.88696289 54.68227783 14.50830078 55.62627441 14.11816406 56.59887695 C12.61892189 59.81831949 10.79623373 61.83291886 8 64 C7.236875 64.598125 6.47375 65.19625 5.6875 65.8125 C1.29925355 67.75149262 -2.62921568 67.77422292 -7.1171875 66.30859375 C-11.925078 64.14050728 -15.16902802 61.54671257 -18 57 C-22.8447578 41.44577757 -7.02514472 14.05028943 0 0 Z M2 5 C0.22074312 9.23130969 -1.55736368 13.46310026 -3.33447266 17.6953125 C-3.93735799 19.1306619 -4.54054048 20.56588654 -5.14404297 22.00097656 C-6.85309782 26.06529606 -8.55661776 30.13183886 -10.2507019 34.2024231 C-10.93007873 35.83225788 -11.61429912 37.46007159 -12.29907227 39.08764648 C-12.66057373 39.96235596 -13.0220752 40.83706543 -13.39453125 41.73828125 C-13.69979736 42.47087158 -14.00506348 43.20346191 -14.31958008 43.95825195 C-15.80915238 48.4280378 -15.67453256 52.35114264 -13.875 56.75 C-11.01672404 60.17993115 -8.32289613 62.50495656 -3.85546875 63.45703125 C0.41175049 63.76962142 3.23371991 63.27725117 6.53955078 60.49023438 C10.36981571 57.00496996 12.11210245 53.31079969 13.9296875 48.53125 C14.25035187 47.73271606 14.57101624 46.93418213 14.90139771 46.1114502 C15.57078544 44.43424165 16.23082211 42.75327321 16.88183594 41.06884766 C17.87510807 38.49972046 18.89569213 35.9428559 19.921875 33.38671875 C20.57192392 31.74803415 21.22041559 30.10873076 21.8671875 28.46875 C22.16817352 27.70921021 22.46915955 26.94967041 22.77926636 26.16711426 C24.33898175 22.11702519 25.46581311 18.33866078 26 14 C23.09399739 12.74335022 21.20395416 12 18 12 C17.34197388 13.64198364 17.34197388 13.64198364 16.6706543 15.31713867 C15.03675578 19.39097192 13.39726457 23.46253496 11.75610352 27.53344727 C11.04755165 29.29325245 10.34050325 31.05366377 9.63500977 32.81469727 C8.61872887 35.35074423 7.59700141 37.88453812 6.57421875 40.41796875 C6.26159592 41.20149216 5.94897308 41.98501556 5.62687683 42.7922821 C4.02387107 46.74733132 2.33676955 50.40569182 0 54 C-1.65 53.67 -3.3 53.34 -5 53 C-6.07908572 49.77424103 -5.96258754 48.12285295 -4.62890625 45.01342773 C-4.305271 44.24260361 -3.98163574 43.47177948 -3.64819336 42.67759705 C-3.28991455 41.85457596 -2.93163574 41.03155487 -2.5625 40.18359375 C-2.20357666 39.33072281 -1.84465332 38.47785187 -1.47485352 37.59913635 C-0.32725513 34.87391755 0.83480872 32.15523903 2 29.4375 C3.16456002 26.715953 4.32562518 23.9932111 5.47485352 21.26515198 C6.19015258 19.56737038 6.91436734 17.87331277 7.64819336 16.18345642 C8.13364624 15.03194847 8.13364624 15.03194847 8.62890625 13.85717773 C8.91838135 13.18307358 9.20785645 12.50896942 9.50610352 11.81443787 C10.23753594 9.78878363 10.23753594 9.78878363 9 7 C5.48809191 5.77030122 5.48809191 5.77030122 2 5 Z " fill="#000606" transform="translate(273,73)"/>
<path d="M0 0 C0.66 2.64 1.32 5.28 2 8 C-7.96174445 13.10371318 -18.0518773 17.85709495 -28.2722168 22.41894531 C-30.7267162 23.51755275 -33.17473518 24.62987051 -35.62304688 25.7421875 C-37.18972561 26.44355454 -38.75676919 27.14410732 -40.32421875 27.84375 C-41.4162989 28.34352356 -41.4162989 28.34352356 -42.53044128 28.85339355 C-47.65724335 31.11425222 -47.65724335 31.11425222 -51 30 C-51.33 27.69 -51.66 25.38 -52 23 C-47.375 20 -47.375 20 -44 20 C-44.66 16.37 -45.32 12.74 -46 9 C-48.97 9 -51.94 9 -55 9 C-55.66 6.36 -56.32 3.72 -57 1 C-18.35435494 -0.19388403 -18.35435494 -0.19388403 0 0 Z M-37 9 C-36.67 9.66 -36.34 10.32 -36 11 C-35.34 10.67 -34.68 10.34 -34 10 C-34.99 9.67 -35.98 9.34 -37 9 Z M-36 13 C-35.34 13.66 -34.68 14.32 -34 15 C-34 14.34 -34 13.68 -34 13 C-34.66 13 -35.32 13 -36 13 Z " fill="#00FBFB" transform="translate(387,188)"/>
<path d="M0 0 C3.3582842 1.29568372 6.55519335 2.73415258 9.74609375 4.3984375 C10.65568848 4.87224854 11.5652832 5.34605957 12.50244141 5.83422852 C13.47101074 6.34268311 14.43958008 6.8511377 15.4375 7.375 C16.44216309 7.90085693 17.44682617 8.42671387 18.48193359 8.96850586 C45.65158109 23.23966719 45.65158109 23.23966719 55 29 C54.43123699 32.98134109 53.53491974 35.84173934 51 39 C47.64453125 39.70703125 47.64453125 39.70703125 43.8125 39.8125 C42.54019531 39.86019531 41.26789063 39.90789062 39.95703125 39.95703125 C38.98121094 39.97121094 38.00539063 39.98539062 37 40 C39.97 41.65 42.94 43.3 46 45 C45.16717288 49.16413559 44.33920962 51.65536612 42.4375 55.3125 C41.98246094 56.19550781 41.52742188 57.07851563 41.05859375 57.98828125 C40.70925781 58.65214844 40.35992187 59.31601562 40 60 C36.48648979 58.64946864 33.15597693 57.11778924 29.81640625 55.3828125 C28.81633545 54.86372314 27.81626465 54.34463379 26.78588867 53.80981445 C25.72217041 53.25382568 24.65845215 52.69783691 23.5625 52.125 C22.46462158 51.55289795 21.36674316 50.9807959 20.2355957 50.39135742 C10.11219182 45.09665362 0.07761156 39.64470392 -9.9230957 34.12231445 C-11.92921009 33.03825335 -13.95467284 32.00779635 -16 31 C-15.27911311 27.25138816 -14.12320155 24.18480232 -12 21 C-9.1703969 20.36295275 -7.14186274 20.11443282 -4.3125 20.125 C-3.2596582 20.0940625 -3.2596582 20.0940625 -2.18554688 20.0625 C-0.45754532 20.01547955 1.27136406 20.00425249 3 20 C-0.3 18.02 -3.6 16.04 -7 14 C-5.53967505 8.68972746 -3.01679014 4.53669968 0 0 Z M1 5 C-1.04169485 7.90548882 -2 9.40142046 -2 13 C5.26 16.96 12.52 20.92 20 25 C10.43 24.67 0.86 24.34 -9 24 C-9.99 26.475 -9.99 26.475 -11 29 C-10.09797852 29.48859497 -10.09797852 29.48859497 -9.17773438 29.98706055 C-7.34570312 30.97941081 -5.51367188 31.97176107 -3.68164062 32.96411133 C-2.63169922 33.53282959 -1.58175781 34.10154785 -0.5 34.6875 C0.56541016 35.26459717 1.63082031 35.84169434 2.72851562 36.4362793 C3.82873047 37.032229 4.92894531 37.62817871 6.0625 38.2421875 C7.19945312 38.85803711 8.33640625 39.47388672 9.5078125 40.10839844 C10.66023438 40.73262695 11.81265625 41.35685547 13 42 C15.3125 43.25260417 17.625 44.50520833 19.9375 45.7578125 C21.03771484 46.35376221 22.13792969 46.94971191 23.27148438 47.5637207 C24.33689453 48.14081787 25.40230469 48.71791504 26.5 49.3125 C28.07491211 50.16557739 28.07491211 50.16557739 29.68164062 51.03588867 C32.12109375 52.35725911 34.56054688 53.67862956 37 55 C39.79233071 52.44722581 40.48967606 50.77639718 41 47 C39.90300781 46.38511719 38.80601562 45.77023437 37.67578125 45.13671875 C36.22133265 44.32035083 34.76690677 43.50394244 33.3125 42.6875 C32.59126953 42.28337891 31.87003906 41.87925781 31.12695312 41.46289062 C30.42119141 41.06650391 29.71542969 40.67011719 28.98828125 40.26171875 C28.34415283 39.90037842 27.70002441 39.53903809 27.03637695 39.16674805 C24.6712298 37.81163016 22.33739824 36.40243895 20 35 C29.57 35 39.14 35 49 35 C49.33 33.68 49.66 32.36 50 31 C42.15283923 26.14913075 34.08357548 21.75864979 25.9375 17.4375 C24.10455912 16.46269659 22.27202811 15.48713078 20.43984985 14.51089478 C18.69329403 13.58041017 16.94602067 12.6512728 15.19873047 11.72216797 C11.65715396 9.81541475 8.1558224 7.84596044 4.67407227 5.83227539 C3.01310976 4.85160825 3.01310976 4.85160825 1 5 Z " fill="#000808" transform="translate(329,260)"/>
<path d="M0 0 C5.07228861 3.09285891 8.87998012 6.71517932 13 11 C12.01 13.97 11.02 16.94 10 20 C10.886875 19.484375 11.77375 18.96875 12.6875 18.4375 C16.39112093 16.83026828 17.27241326 16.75747109 21 18 C23.67578125 20.06640625 23.67578125 20.06640625 26.3125 22.5625 C27.63701172 23.80193359 27.63701172 23.80193359 28.98828125 25.06640625 C29.98408203 26.02353516 29.98408203 26.02353516 31 27 C28.53482558 29.80444716 25.89251066 31.2338381 22.5625 32.8828125 C21.50289063 33.41003906 20.44328125 33.93726563 19.3515625 34.48046875 C18.24554688 35.02316406 17.13953125 35.56585938 16 36.125 C14.89398438 36.67542969 13.78796875 37.22585937 12.6484375 37.79296875 C4.46416823 41.84527726 4.46416823 41.84527726 1 43 C0.11211228 44.97234921 0.11211228 44.97234921 -0.43359375 47.40234375 C-1.95162363 52.9552674 -3.91986241 58.22379447 -6.0625 63.5625 C-6.41376953 64.46291016 -6.76503906 65.36332031 -7.12695312 66.29101562 C-7.46791016 67.14501953 -7.80886719 67.99902344 -8.16015625 68.87890625 C-8.46574463 69.6479126 -8.77133301 70.41691895 -9.08618164 71.20922852 C-10 73 -10 73 -12 74 C-22.29463821 65.32951588 -22.29463821 65.32951588 -24 62 C-23.40221456 59.12416732 -22.32286742 56.61331162 -21 54 C-22.60875 55.051875 -22.60875 55.051875 -24.25 56.125 C-26.078125 57.3203125 -26.078125 57.3203125 -28 58 C-31.55403623 56.8535367 -34.02708373 54.35765896 -36.75 51.875 C-37.54921875 51.15054688 -38.3484375 50.42609375 -39.171875 49.6796875 C-39.77515625 49.12539062 -40.3784375 48.57109375 -41 48 C-40 45 -40 45 -37.58251953 43.78686523 C-36.52661621 43.38153564 -35.47071289 42.97620605 -34.3828125 42.55859375 C-17.60935239 35.51431736 -17.60935239 35.51431736 -7.26708984 20.96704102 C-5.62042844 16.59579902 -4.09284386 12.2240062 -2.80834961 7.73217773 C-2.02205589 5.07454772 -1.06846461 2.55552998 0 0 Z M1 7 C0.79246094 7.75506836 0.58492188 8.51013672 0.37109375 9.28808594 C-6.39032111 32.43673743 -6.39032111 32.43673743 -16.0390625 38.359375 C-21.14746642 40.99139315 -26.41643898 43.14265627 -31.85791016 44.98632812 C-32.5647998 45.32083984 -33.27168945 45.65535156 -34 46 C-34.33 46.99 -34.66 47.98 -35 49 C-32.81099414 51.1687189 -32.81099414 51.1687189 -30 53 C-26.03989285 52.62539527 -22.76172313 51.11695424 -19.1875 49.4375 C-18.21167969 48.98246094 -17.23585938 48.52742188 -16.23046875 48.05859375 C-15.12638672 47.53458984 -15.12638672 47.53458984 -14 47 C-14.37253906 47.80824219 -14.74507813 48.61648437 -15.12890625 49.44921875 C-15.60199219 50.51785156 -16.07507813 51.58648437 -16.5625 52.6875 C-17.03816406 53.74324219 -17.51382812 54.79898438 -18.00390625 55.88671875 C-19.06336915 59.19805966 -19.0837488 60.74301949 -18 64 C-16.72840348 65.85602615 -16.72840348 65.85602615 -15 67 C-14.01 67 -13.02 67 -12 67 C-10.32776718 62.87723451 -8.66315937 58.75143325 -7 54.625 C-6.52304687 53.449375 -6.04609375 52.27375 -5.5546875 51.0625 C-5.10351562 49.94101563 -4.65234375 48.81953125 -4.1875 47.6640625 C-3.76855469 46.62717285 -3.34960938 45.5902832 -2.91796875 44.52197266 C-1.88598827 42.1340781 -1.88598827 42.1340781 -2 40 C-1.21367187 39.77570313 -0.42734375 39.55140625 0.3828125 39.3203125 C5.12315644 37.59003577 9.43668806 35.26126109 13.875 32.875 C14.75414062 32.40707031 15.63328125 31.93914062 16.5390625 31.45703125 C18.69494271 30.3087907 20.84846777 29.15636097 23 28 C23.3 24.93125 23.3 24.93125 21.3125 22.75 C19.17717082 20.7276436 19.17717082 20.7276436 16.71875 21.19921875 C13.5879098 22.12137714 11.02597275 23.45517206 8.1875 25.0625 C6.475625 26.031875 4.76375 27.00125 3 28 C4.98 22.72 6.96 17.44 9 12 C6.525 9.525 6.525 9.525 4 7 C3.01 7 2.02 7 1 7 Z " fill="#000606" transform="translate(322,96)"/>
<path d="M0 0 C4.16139739 1.63338236 7.08008275 3.90203425 9.9375 7.3125 C12.83262545 14.63546437 11.98598858 19.21149958 9.203125 26.38671875 C7.97423602 29.05596137 6.56005858 31.51197554 5 34 C-0.75 32.125 -0.75 32.125 -3 31 C-2.505 31.928125 -2.505 31.928125 -2 32.875 C0.07376631 39.35551971 -0.24623687 45.10560428 -3.0625 51.3125 C-5.59094279 55.78481525 -8.08939125 59.15737007 -13 61 C-18.57914605 62.00074369 -23.44362349 61.74189707 -28.4375 58.9375 C-33.17166474 55.48651749 -35.51012105 51.72154972 -36.5625 45.875 C-35.69514356 39.89987784 -33.33360807 34.54231916 -31 29 C-30.05125 29.33 -29.1025 29.66 -28.125 30 C-25.22937548 31.10159191 -25.22937548 31.10159191 -23 31 C-23.15726563 30.44570313 -23.31453125 29.89140625 -23.4765625 29.3203125 C-25.21623939 21.60861049 -24.34490256 15.05112167 -20.50390625 8.16796875 C-15.19764046 0.51867651 -8.95149753 -1.07369714 0 0 Z M-16 8 C-19.46485796 13.39788398 -22.16438896 18.4794218 -21 25 C-19.07755827 29.60820591 -16.76779876 33.84830186 -14 38 C-13.953125 39.97265625 -13.953125 39.97265625 -14.25 42.0625 C-14.33765625 42.75472656 -14.4253125 43.44695312 -14.515625 44.16015625 C-15 46 -15 46 -17 48 C-19.625 47.625 -19.625 47.625 -22 47 C-23.46726798 43.18510326 -22.43336419 40.70988378 -21 37 C-24.80427492 34.7986134 -24.80427492 34.7986134 -29 34 C-32.08150179 39.00744041 -32.91659899 43.25323329 -32 49 C-30.21413657 52.70910097 -28.63776905 54.54021301 -25.3125 56.9375 C-20.92059478 58.34622432 -17.4199413 58.33170135 -13 57 C-8.35162539 53.46319323 -5.52749834 49.34433949 -4.609375 43.5234375 C-4.1846338 36.66965897 -5.88929772 32.84606867 -9.65234375 27.21484375 C-11.45448971 24.25305604 -11.69296358 22.38782196 -11 19 C-9.5 15.625 -9.5 15.625 -8 13 C-5.03 13.495 -5.03 13.495 -2 14 C-2.55312735 18.02992782 -3.1558062 22.02022924 -4 26 C-0.31435916 28.45579697 -0.31435916 28.45579697 4 29 C7.80796851 20.82710257 7.80796851 20.82710257 8 12 C5.03263052 7.4616702 2.10830118 4.83898842 -3 3 C-8.83660884 2.16619874 -12.31425691 3.46370081 -16 8 Z M-6 16 C-8.30671915 18.71549154 -8.30671915 18.71549154 -7.625 21.1875 C-7.41875 21.785625 -7.2125 22.38375 -7 23 C-6.01 20.69 -5.02 18.38 -4 16 C-4.66 16 -5.32 16 -6 16 Z M-18 39 C-18.66 40.98 -19.32 42.96 -20 45 C-19.34 45 -18.68 45 -18 45 C-17.67 43.02 -17.34 41.04 -17 39 C-17.33 39 -17.66 39 -18 39 Z " fill="#000606" transform="translate(186,317)"/>
<path d="M0 0 C4.13780847 3.22950905 7.54765816 6.63904915 10.94921875 10.62890625 C13.40888855 13.47275305 15.95042525 16.23713314 18.5 19 C22.13717175 22.95003354 25.72675131 26.93330224 29.2421875 30.9921875 C32.11140764 34.2694745 35.05135327 37.48295429 37.984375 40.703125 C43 46.41860465 43 46.41860465 43 49 C40.515625 50.796875 40.515625 50.796875 37.25 52.75 C36.18265625 53.40484375 35.1153125 54.0596875 34.015625 54.734375 C31 56 31 56 28.90625 55.5546875 C26.29706093 53.42670134 24.33707681 51.01453832 22.25 48.375 C21.45078125 47.37210937 20.6515625 46.36921875 19.828125 45.3359375 C19.22484375 44.56507813 18.6215625 43.79421875 18 43 C18.29003906 43.96099609 18.29003906 43.96099609 18.5859375 44.94140625 C20.0940748 49.95110985 21.57717786 54.96539857 23 60 C21.60823368 60.96423026 20.2113777 61.92111602 18.8125 62.875 C18.03519531 63.40867187 17.25789063 63.94234375 16.45703125 64.4921875 C14.02874231 65.98236163 11.65119878 66.97659479 9 68 C6.07937973 60.87141335 3.40382692 53.67948272 0.85546875 46.41015625 C0.4814241 45.34381454 0.10737946 44.27747284 -0.27799988 43.17881775 C-1.05999584 40.9448054 -1.84060278 38.71030639 -2.61987305 36.4753418 C-3.41983608 34.18615384 -4.22392443 31.89840362 -5.03198242 29.61206055 C-6.20332986 26.29777923 -7.36279718 22.97956172 -8.51953125 19.66015625 C-8.88399857 18.63519547 -9.24846588 17.61023468 -9.62397766 16.55421448 C-9.95149521 15.60570114 -10.27901276 14.65718781 -10.61645508 13.67993164 C-10.90861404 12.84627579 -11.20077301 12.01261993 -11.50178528 11.15370178 C-12 9 -12 9 -11 6 C-8.49609375 4.39453125 -8.49609375 4.39453125 -5.4375 2.8125 C-4.42558594 2.28269531 -3.41367187 1.75289063 -2.37109375 1.20703125 C-1.58863281 0.80871094 -0.80617188 0.41039062 0 0 Z M-7 8 C-6.38449501 14.23729637 -4.54397681 19.77901971 -2.47265625 25.67578125 C-2.12367783 26.68215134 -1.7746994 27.68852142 -1.41514587 28.72538757 C-0.67938531 30.84185873 0.05956315 32.95722405 0.80151367 35.0715332 C1.93874189 38.31604311 3.0627904 41.56491083 4.18554688 44.81445312 C4.90286394 46.8726685 5.62093653 48.93062075 6.33984375 50.98828125 C6.84462502 52.44914909 6.84462502 52.44914909 7.35960388 53.93952942 C7.67655716 54.83773911 7.99351044 55.73594879 8.32006836 56.66137695 C8.73523964 57.84882256 8.73523964 57.84882256 9.15879822 59.06025696 C9.93838378 61.18331577 9.93838378 61.18331577 12 63 C13.98 61.68 15.96 60.36 18 59 C17.38024337 54.52233251 16.25376038 50.53569321 14.71484375 46.2890625 C14.49429825 45.67606293 14.27375275 45.06306335 14.04652405 44.43148804 C13.34830044 42.49422327 12.64303353 40.55961294 11.9375 38.625 C11.45981664 37.30355515 10.9825985 35.98194204 10.50585938 34.66015625 C9.34180164 31.43842071 8.1730383 28.21847424 7 25 C17.60146186 36.56791831 17.60146186 36.56791831 21.9375 41.9375 C22.64777344 42.81277344 23.35804688 43.68804687 24.08984375 44.58984375 C25.76348655 46.7015771 27.39708728 48.83430915 29 51 C31.92879371 50.37240135 34.36095629 49.41377341 37 48 C35.49998409 42.52121848 31.66174984 39.14088414 27.8125 35.1875 C26.50515689 33.82812334 25.19916342 32.46744739 23.89453125 31.10546875 C23.24726074 30.43016113 22.59999023 29.75485352 21.93310547 29.05908203 C19.41205712 26.37374208 16.99371587 23.60755802 14.58276367 20.82348633 C11.78290422 17.59779602 8.89167683 14.45449834 6.015625 11.296875 C4 9 4 9 2.421875 6.703125 C1.71804688 5.86007812 1.71804688 5.86007812 1 5 C-2.57575896 5 -4.05295935 6.08840607 -7 8 Z " fill="#000505" transform="translate(289,311)"/>
<path d="M0 0 C2.19621534 9.96912312 4.37955699 19.94098887 6.54711914 29.91638184 C6.97156799 31.86918975 7.39688564 33.82180877 7.82226562 35.77441406 C8.5344362 39.05647148 9.2377536 42.34027444 9.9375 45.625 C10.14850342 46.59373047 10.35950684 47.56246094 10.5769043 48.56054688 C11.53853687 53.12024381 12.25717587 57.3084886 12 62 C8.29394995 62.84371205 4.58483619 63.6731088 0.875 64.5 C-0.69507813 64.85771484 -0.69507813 64.85771484 -2.296875 65.22265625 C-3.31523437 65.44824219 -4.33359375 65.67382812 -5.3828125 65.90625 C-6.31496582 66.11572266 -7.24711914 66.32519531 -8.20751953 66.54101562 C-11.18407693 67.03025569 -13.98883181 67.07770757 -17 67 C-18.91626837 62.01770224 -19.5547115 57.27315333 -20 52 C-19.14535156 51.79503906 -18.29070312 51.59007812 -17.41015625 51.37890625 C-16.30542969 51.10949219 -15.20070312 50.84007812 -14.0625 50.5625 C-12.96035156 50.29566406 -11.85820312 50.02882813 -10.72265625 49.75390625 C-8.10578746 49.27004275 -8.10578746 49.27004275 -7 48 C-7 46.35 -7 44.7 -7 43 C-12.445 43.495 -12.445 43.495 -18 44 C-20.14285714 33.95535714 -20.14285714 33.95535714 -20 29 C-14.375 27 -14.375 27 -11 27 C-11.33 24.36 -11.66 21.72 -12 19 C-12.66386719 19.144375 -13.32773438 19.28875 -14.01171875 19.4375 C-14.89472656 19.623125 -15.77773437 19.80875 -16.6875 20 C-17.55761719 20.185625 -18.42773438 20.37125 -19.32421875 20.5625 C-22 21 -22 21 -27 21 C-27.99 16.05 -28.98 11.1 -30 6 C-6.57142857 0 -6.57142857 0 0 0 Z M-14 5.9375 C-14.83273438 6.11990234 -15.66546875 6.30230469 -16.5234375 6.49023438 C-17.32007813 6.66748047 -18.11671875 6.84472656 -18.9375 7.02734375 C-19.66839844 7.18968506 -20.39929688 7.35202637 -21.15234375 7.51928711 C-23.07606902 7.95153642 -23.07606902 7.95153642 -25 9 C-24.67 11.64 -24.34 14.28 -24 17 C-19.05 16.34 -14.1 15.68 -9 15 C-8.855625 16.36125 -8.71125 17.7225 -8.5625 19.125 C-8.1588645 22.77501819 -7.64899213 26.38418668 -7 30 C-9.97 30.33 -12.94 30.66 -16 31 C-15.67 33.97 -15.34 36.94 -15 40 C-10.05 39.505 -10.05 39.505 -5 39 C-3.515 45.435 -3.515 45.435 -2 52 C-3.93875 52.309375 -5.8775 52.61875 -7.875 52.9375 C-12.07454528 53.53894738 -12.07454528 53.53894738 -16 55 C-15.67 57.31 -15.34 59.62 -15 62 C-11.82540369 63.01498547 -9.69122329 62.94466465 -6.453125 62.22265625 C-5.18662109 61.94711914 -5.18662109 61.94711914 -3.89453125 61.66601562 C-3.02183594 61.46685547 -2.14914062 61.26769531 -1.25 61.0625 C-0.36183594 60.86720703 0.52632813 60.67191406 1.44140625 60.47070312 C3.62949322 59.98838288 5.8154173 59.49790968 8 59 C7.17973742 51.25197755 5.6751563 43.64314318 4.1875 36 C4.05438416 35.31179169 3.92126831 34.62358337 3.78411865 33.91452026 C1.83453647 23.85908163 -0.27799708 13.87926943 -3 4 C-6.72952375 4 -10.37319138 5.12624018 -14 5.9375 Z " fill="#000606" transform="translate(267,324)"/>
<path d="M0 0 C5.28 0.33 10.56 0.66 16 1 C15.67 5.95 15.34 10.9 15 16 C17.31 16.33 19.62 16.66 22 17 C22 13.7 22 10.4 22 7 C27.48677955 6.91558801 32.59280411 7.07962623 38 8 C38 10.97 38 13.94 38 17 C40.64 17.66 43.28 18.32 46 19 C46.33 14.38 46.66 9.76 47 5 C52.53728054 4.92517188 57.54117674 5.0461911 63 6 C62.6937956 10.43795812 62.37896458 14.87526265 62.0625 19.3125 C61.97548828 20.57513672 61.88847656 21.83777344 61.79882812 23.13867188 C61.71181641 24.34716797 61.62480469 25.55566406 61.53515625 26.80078125 C61.456604 27.91622314 61.37805176 29.03166504 61.29711914 30.1809082 C61 33 61 33 60 36 C47.94732347 35.39347564 35.94971468 34.42892435 23.93798828 33.27050781 C21.08020103 32.99569196 18.2217942 32.72808824 15.36328125 32.4609375 C13.53641774 32.2868839 11.7095932 32.11242063 9.8828125 31.9375 C9.03292755 31.85830322 8.1830426 31.77910645 7.30740356 31.69750977 C4.05064073 31.37928407 1.11538139 31.03846046 -2 30 C-2.40820882 19.90817093 -1.16108676 10.00400644 0 0 Z M3 4 C1.93940512 11.68931285 1.90071918 19.24506486 2 27 C20.30018516 29.60573331 38.55720865 30.98250448 57 32 C57.33675279 29.10452736 57.66951734 26.20868928 58 23.3125 C58.09539062 22.49587891 58.19078125 21.67925781 58.2890625 20.83789062 C58.73870522 16.87139948 59.13034543 12.99997537 59 9 C56.03 9 53.06 9 50 9 C49.67 13.62 49.34 18.24 49 23 C48.34 22.67 47.68 22.34 47 22 C44.7927077 21.92907158 42.58332548 21.91584975 40.375 21.9375 C38.59222656 21.95103516 38.59222656 21.95103516 36.7734375 21.96484375 C35.40058594 21.98224609 35.40058594 21.98224609 34 22 C34 18.37 34 14.74 34 11 C31.36 11 28.72 11 26 11 C24.47825081 13.67082039 24.47825081 13.67082039 25 20 C20.38 20 15.76 20 11 20 C11.33 15.05 11.66 10.1 12 5 C9.03 4.67 6.06 4.34 3 4 Z " fill="#000808" transform="translate(69,198)"/>
<path d="M0 0 C3.50023856 0.14042495 7.00012399 0.28833226 10.5 0.4375 C11.48226562 0.47681641 12.46453125 0.51613281 13.4765625 0.55664062 C19.0373059 0.79760617 24.48855309 1.21921169 30 2 C30.02725341 3.7290774 30.04650987 5.45828176 30.0625 7.1875 C30.07410156 8.15042969 30.08570313 9.11335938 30.09765625 10.10546875 C30 13 30 13 29 18 C22.07 17.505 22.07 17.505 15 17 C15 18.98 15 20.96 15 23 C17.97 23.33 20.94 23.66 24 24 C24 29.28 24 34.56 24 40 C19.05 40.495 19.05 40.495 14 41 C13.67 43.31 13.34 45.62 13 48 C19.93 48.495 19.93 48.495 27 49 C27 54.28 27 59.56 27 65 C23.33313346 64.85827078 19.66656198 64.71174645 16 64.5625 C14.97003906 64.52318359 13.94007813 64.48386719 12.87890625 64.44335938 C11.86699219 64.40146484 10.85507813 64.35957031 9.8125 64.31640625 C8.89082031 64.27974854 7.96914062 64.24309082 7.01953125 64.20532227 C3.31909394 63.95369971 -0.32298829 63.48554525 -4 63 C-3.59506401 55.31342345 -3.18565754 47.6270942 -2.77319336 39.94091797 C-2.63349978 37.32801666 -2.49481657 34.71506113 -2.35717773 32.10205078 C-2.15876834 28.33871872 -1.95668481 24.57559886 -1.75390625 20.8125 C-1.6934462 19.65073242 -1.63298615 18.48896484 -1.57069397 17.29199219 C-1.25415037 11.48457433 -0.81529074 5.75933688 0 0 Z M3 4 C2.56971734 10.84999164 2.14282831 17.70018882 1.71826172 24.55053711 C1.57352978 26.8793615 1.42803031 29.20813833 1.28173828 31.53686523 C1.07120629 34.89033904 0.86346443 38.24397602 0.65625 41.59765625 C0.59062866 42.63334244 0.52500732 43.66902863 0.45739746 44.73609924 C0.14501113 49.83565946 -0.07517987 54.89090128 0 60 C7.69321161 60.67526622 15.27648701 61.11527631 23 61 C23 58.03 23 55.06 23 52 C18.71 52 14.42 52 10 52 C10 46.72 10 41.44 10 36 C13.3 36 16.6 36 20 36 C20 33.36 20 30.72 20 28 C17.03 28 14.06 28 11 28 C11 23.05 11 18.1 11 13 C15.95 13.33 20.9 13.66 26 14 C26 11.03 26 8.06 26 5 C24.22977479 4.8269937 22.45876206 4.66204685 20.6875 4.5 C19.20830078 4.36078125 19.20830078 4.36078125 17.69921875 4.21875 C14.53828911 4.03183125 11.4332064 3.97811688 8.26879883 3.98632812 C6.78746208 3.98928894 6.78746208 3.98928894 5.27619934 3.99230957 C4.52505356 3.99484741 3.77390778 3.99738525 3 4 Z " fill="#000606" transform="translate(222,67)"/>
<path d="M0 0 C5.28 0.66 10.56 1.32 16 2 C16.33 3.65 16.66 5.3 17 7 C17.33 5.68 17.66 4.36 18 3 C23.28 3.33 28.56 3.66 34 4 C32.7512507 16.99296 31.35198611 29.95960784 29.76782227 42.91601562 C29.4300992 45.68569418 29.09876647 48.45609575 28.76757812 51.2265625 C28.55246417 52.99744214 28.33698422 54.76827736 28.12109375 56.5390625 C28.02316025 57.36282379 27.92522675 58.18658508 27.82432556 59.03530884 C27.11454705 64.7709059 27.11454705 64.7709059 26 67 C23.14396497 66.74310796 20.29102682 66.46996134 17.4375 66.1875 C16.23770508 66.08211914 16.23770508 66.08211914 15.01367188 65.97460938 C9.17709085 65.37903988 3.84856868 64.45257931 -0.7421875 60.5 C-5.79494159 53.80945665 -5.67544146 47.57452953 -4.69140625 39.453125 C-3.97698007 35.68500108 -3.43625343 33.50040835 -0.875 30.5625 C2.0764423 26.52886219 1.30944891 22.85192535 1 18 C0.91910254 16.44929476 0.83980565 14.89850556 0.76171875 13.34765625 C0.53148243 8.89685922 0.27136632 4.44846936 0 0 Z M4 5 C4.66 13.25 5.32 21.5 6 30 C4.02 30.99 4.02 30.99 2 32 C-2.01301852 38.30617196 -1.87659685 45.72940261 -1 53 C0.69151589 56.64246673 2.44113369 59.09683143 6 61 C8.89828761 61.62983727 11.79878798 61.92076525 14.75 62.1875 C15.54277344 62.26935547 16.33554688 62.35121094 17.15234375 62.43554688 C19.10043334 62.63505003 21.05009871 62.81905938 23 63 C24.63308467 52.88388361 25.98806967 42.73988237 27.28710938 32.57641602 C27.62844864 29.91056619 27.97427197 27.24532132 28.3203125 24.58007812 C28.53933203 22.8750346 28.7580917 21.16995767 28.9765625 19.46484375 C29.07965729 18.67319321 29.18275208 17.88154266 29.28897095 17.06590271 C29.71967524 13.66920259 30 10.43072092 30 7 C27.03 7 24.06 7 21 7 C20.66076424 9.35344806 20.32849466 11.7075484 20 14.0625 C19.85691406 15.04766602 19.85691406 15.04766602 19.7109375 16.05273438 C19.11112326 20.40138763 18.90872907 24.61329071 19 29 C17.68 28.67 16.36 28.34 15 28 C14.34 20.41 13.68 12.82 13 5 C10.03 5 7.06 5 4 5 Z " fill="#000909" transform="translate(202,326)"/>
<path d="M0 0 C1.32 4.95 2.64 9.9 4 15 C2.68 15.99 1.36 16.98 0 18 C1.65 18 3.3 18 5 18 C5.99 22.95 6.98 27.9 8 33 C-3.37325683 36.11038589 -14.79877835 38.9061323 -26.28344727 41.57421875 C-29.22205396 42.2580408 -32.15887582 42.94920582 -35.09570312 43.640625 C-36.97385488 44.07856891 -38.85210644 44.51608507 -40.73046875 44.953125 C-41.6033403 45.15931458 -42.47621185 45.36550415 -43.37553406 45.57794189 C-44.18770889 45.76523865 -44.99988373 45.9525354 -45.83666992 46.14550781 C-46.54643478 46.31109192 -47.25619965 46.47667603 -47.98747253 46.64727783 C-50 47 -50 47 -54 47 C-54.67662 44.31466436 -55.34146121 41.627275 -56 38.9375 C-56.19078125 38.18533203 -56.3815625 37.43316406 -56.578125 36.65820312 C-58.28094094 29.63408738 -59.07474772 23.41320171 -55.5390625 16.86328125 C-51.8728887 12.42479165 -45.58041115 10.02518917 -40 9 C-38.00169711 8.90768709 -36.00042773 8.86999893 -34 8.875 C-32.96875 8.87242187 -31.9375 8.86984375 -30.875 8.8671875 C-28 9 -28 9 -26.14111328 9.63891602 C-23.1525985 10.14290842 -21.5825928 9.20725377 -18.8671875 7.91015625 C-17.89652344 7.45576172 -16.92585938 7.00136719 -15.92578125 6.53320312 C-14.41564453 5.80520508 -14.41564453 5.80520508 -12.875 5.0625 C-10.87386356 4.11278658 -8.8713269 3.16601614 -6.8671875 2.22265625 C-5.98144043 1.79734619 -5.09569336 1.37203613 -4.18310547 0.93383789 C-2 0 -2 0 0 0 Z M-7.9296875 7.0390625 C-23.2601767 15.13376105 -23.2601767 15.13376105 -32.22265625 12.58203125 C-37.95852026 11.38000068 -44.10173003 13.23343545 -49.05078125 16.25 C-51.17754254 17.95546967 -52.77478794 19.54957588 -54 22 C-54.48210763 29.47266829 -52.99380796 35.82577702 -51 43 C-39.27126573 40.76611391 -27.67167565 38.0943359 -16.0625 35.3125 C-14.30018927 34.89233033 -12.53781979 34.472407 -10.77539062 34.05273438 C-6.5162467 33.03798537 -2.25790378 32.01993955 2 31 C2.76286236 27.59254812 3.11667279 25.35001838 2 22 C-5.4596963 22.74596963 -12.68951218 24.36746129 -20 26 C-20 25.01 -20 24.02 -20 23 C-10.595 18.545 -10.595 18.545 -1 14 C-1.495 9.545 -1.495 9.545 -2 5 C-4.52608271 5 -5.71800614 5.82341669 -7.9296875 7.0390625 Z " fill="#000707" transform="translate(129,235)"/>
<path d="M0 0 C-0.02618408 1.23862793 -0.05236816 2.47725586 -0.0793457 3.75341797 C-0.17124298 8.43877409 -0.22774562 13.12405445 -0.2746582 17.81005859 C-0.29948987 19.82126345 -0.33336741 21.83238118 -0.37719727 23.84326172 C-0.63818063 36.14325419 0.07722799 46.93792748 3.91723633 58.68017578 C5 62 5 62 5 64 C-0.28 65.32 -5.56 66.64 -11 68 C-11.34289062 66.52273437 -11.68578125 65.04546875 -12.0390625 63.5234375 C-15.78394069 48.61077545 -21.54894762 37.06787891 -30.30517578 24.49316406 C-38 13.17372515 -38 13.17372515 -38 10 C-35.89748139 9.32815382 -33.79292237 8.66269032 -31.6875 8 C-30.51574219 7.62875 -29.34398437 7.2575 -28.13671875 6.875 C-25 6 -25 6 -22 6 C-20.02002775 8.4986692 -18.60045753 11.23164104 -17 14 C-16.67 10.7 -16.34 7.4 -16 4 C-13.89748139 3.32815382 -11.79292237 2.66269032 -9.6875 2 C-8.51574219 1.62875 -7.34398437 1.2575 -6.13671875 0.875 C-3 0 -3 0 0 0 Z M-13 7 C-13.33 13.27 -13.66 19.54 -14 26 C-18.95 18.08 -18.95 18.08 -24 10 C-26.97 10.66 -29.94 11.32 -33 12 C-31.65126729 15.65850905 -29.99926384 18.78369554 -27.8828125 22.0546875 C-27.27566406 22.99957031 -26.66851562 23.94445312 -26.04296875 24.91796875 C-25.41003906 25.89378906 -24.77710938 26.86960937 -24.125 27.875 C-21.73584502 31.57449565 -19.35701354 35.27993329 -17 39 C-16.59072266 39.64042236 -16.18144531 40.28084473 -15.75976562 40.94067383 C-13.04138612 45.40300427 -11.61131657 49.94172503 -10.25 54.9375 C-10.02957031 55.71673828 -9.80914062 56.49597656 -9.58203125 57.29882812 C-9.04638073 59.19689411 -8.52199702 61.09813379 -8 63 C-4.535 62.505 -4.535 62.505 -1 62 C0.27486173 57.64037443 -0.40814755 55.15364078 -1.921875 50.9296875 C-4.72968915 41.67743244 -4.44212189 32.71478208 -4.25 23.125 C-4.22988095 21.35809343 -4.21163985 19.59116443 -4.1953125 17.82421875 C-4.15179819 13.5489125 -4.08307859 9.27471289 -4 5 C-8.27854301 4.75240622 -8.27854301 4.75240622 -13 7 Z " fill="#000606" transform="translate(203,69)"/>
<path d="M0 0 C6.3118572 4.1258959 12.44319241 8.44676745 18.5 12.9375 C19.29019531 13.51951172 20.08039063 14.10152344 20.89453125 14.70117188 C38.75596709 27.8999252 38.75596709 27.8999252 41 33 C41.30808762 37.5645613 40.63114521 40.96311859 38.25 44.875 C35.08967181 47.85975441 32.60794168 49.66345407 28.3125 50.5625 C23.29183752 49.70993467 18.86091639 47.32679752 15 44 C15 39.73173127 15.37613513 39.06117568 18 36 C20.9719385 37.12451727 23.33440687 38.22293791 26 40 C27.32 40 28.64 40 30 40 C30.33 38.02 30.66 36.04 31 34 C21.474552 26.54456985 11.73784851 19.41261924 1.90014648 12.37524414 C-0.08394224 10.93924622 -2.04460226 9.47476255 -4 8 C-3.39676766 4.62189888 -2.09807945 2.67744188 0 0 Z " fill="#00F8F8" transform="translate(105,128)"/>
<path d="M0 0 C8.29734323 5.82579418 13.55416063 14.6597627 18.9375 23.0625 C19.59363281 24.02929688 20.24976563 24.99609375 20.92578125 25.9921875 C28.57956998 37.43325471 28.57956998 37.43325471 27.62109375 44.34375 C26.05938738 50.23698158 23.05294409 53.8072174 17.9375 57.0625 C12.49182938 58.87772354 7.00927323 58.9968291 1.75 56.625 C-5.36629189 50.14126739 -10.55813421 41.60771248 -15.9375 33.6875 C-16.61296875 32.70394531 -17.2884375 31.72039062 -17.984375 30.70703125 C-18.62632812 29.76472656 -19.26828125 28.82242188 -19.9296875 27.8515625 C-20.50831543 27.00287598 -21.08694336 26.15418945 -21.68310547 25.27978516 C-24.50336333 20.74640783 -24.79315605 16.25267744 -24.0625 11.0625 C-22.06785889 5.96408999 -18.96543898 2.10805832 -14.01953125 -0.31640625 C-9.20069993 -1.84573595 -4.77691065 -1.46231959 0 0 Z M-17.9375 7.6875 C-20.66178767 12.01430984 -20.80339722 15.06118689 -20.0625 20.0625 C-18.9133105 22.94955527 -17.32544483 25.38822632 -15.5625 27.9375 C-14.88344604 28.96786377 -14.88344604 28.96786377 -14.19067383 30.01904297 C-12.83915556 32.05166188 -11.45835234 34.06013174 -10.0625 36.0625 C-9.31355469 37.14015625 -8.56460938 38.2178125 -7.79296875 39.328125 C-5.92534097 41.9420897 -4.01435282 44.51108701 -2.0625 47.0625 C-1.59070313 47.70058594 -1.11890625 48.33867187 -0.6328125 48.99609375 C1.88756863 52.26006559 3.85654472 54.20834657 7.9375 55.0625 C14.45776832 54.95900368 17.39041132 53.7178527 21.9375 49.0625 C24.50013485 45.56799793 24.27838413 42.29981916 23.9375 38.0625 C22.8061523 35.35146643 21.26074893 32.99532354 19.625 30.5625 C18.95754761 29.53624512 18.95754761 29.53624512 18.27661133 28.48925781 C15.00621088 23.51957073 11.60144547 18.63993297 8.125 13.8125 C7.6818042 13.19310547 7.2386084 12.57371094 6.78198242 11.93554688 C3.37295498 7.31599815 0.2194045 3.68483759 -5.5 2.125 C-11.13682973 2.02610825 -13.84974983 3.95520636 -17.9375 7.6875 Z " fill="#000404" transform="translate(150.0625,94.9375)"/>
<path d="M0 0 C7.33872871 6.00630704 13.87379424 12.80846613 20.52709961 19.54760742 C22.08751851 21.12634733 23.65057065 22.70242323 25.21484375 24.27734375 C25.71422455 24.7821225 26.21360535 25.28690125 26.7281189 25.80697632 C30.19626678 29.28258922 33.80421473 32.48257671 37.67407227 35.50219727 C39 37 39 37 39 41 C37.125 43.25 37.125 43.25 35 45 C34.34 45 33.68 45 33 45 C33 44.34 33 43.68 33 43 C32.40230804 42.72795242 31.80461609 42.45590485 31.18881226 42.1756134 C29.04491312 41.02412288 27.67618292 39.91328945 25.97900391 38.19018555 C25.41807037 37.62587326 24.85713684 37.06156097 24.27920532 36.48014832 C23.68433319 35.87181656 23.08946106 35.2634848 22.4765625 34.63671875 C21.85276703 34.00772171 21.22897156 33.37872467 20.58627319 32.73066711 C18.59436574 30.72097561 16.6092628 28.70473757 14.625 26.6875 C12.64705816 24.68181873 10.66763684 22.6776573 8.68515015 20.6764679 C7.45348767 19.43268326 6.22450643 18.18623569 4.99868774 16.93669128 C1.49221559 13.38984723 -2.11714454 10.13167934 -6 7 C-4.02 4.69 -2.04 2.38 0 0 Z " fill="#00F6F6" transform="translate(310,297)"/>
<path d="M0 0 C3.01845439 4.02460586 3.01845439 4.02460586 2.96313477 6.94848633 C1.45142291 10.16849005 -0.97890119 10.96818337 -4.09765625 12.57421875 C-4.71964401 12.89981277 -5.34163177 13.2254068 -5.98246765 13.56086731 C-8.00295382 14.61551522 -10.03244721 15.65140556 -12.0625 16.6875 C-14.12882882 17.75998647 -16.19276372 18.83698426 -18.25662231 19.91421509 C-19.61636715 20.62347154 -20.97694069 21.33114158 -22.33834839 22.03720093 C-28.19746261 25.0803361 -33.95350514 28.28549954 -39.65649414 31.61206055 C-43.79871689 34 -43.79871689 34 -46 34 C-47.5625 31.1875 -47.5625 31.1875 -49 28 C-48 25 -48 25 -46.14013672 23.76416016 C-45.32818848 23.35987793 -44.51624023 22.9555957 -43.6796875 22.5390625 C-42.7621167 22.07338867 -41.8445459 21.60771484 -40.89916992 21.12792969 C-39.90119385 20.63196289 -38.90321777 20.13599609 -37.875 19.625 C-28.14887738 14.68919483 -18.62804473 9.47840523 -9.18896484 4.01416016 C-8.27453613 3.48870605 -7.36010742 2.96325195 -6.41796875 2.421875 C-5.61125732 1.95362305 -4.8045459 1.48537109 -3.97338867 1.00292969 C-2 0 -2 0 0 0 Z " fill="#00F8F8" transform="translate(138,275)"/>
<path d="M0 0 C3.43305376 1.41143274 5.16208155 4.66632205 7.21972656 7.62231445 C7.69772705 8.29504395 8.17572754 8.96777344 8.66821289 9.66088867 C9.64289879 11.03915672 10.61206842 12.42134231 11.57568359 13.80737305 C12.85758443 15.64873043 14.15896595 17.47441822 15.46582031 19.2980957 C16.18898437 20.33321289 16.91214844 21.36833008 17.65722656 22.43481445 C18.30046875 23.35520508 18.94371094 24.2755957 19.60644531 25.22387695 C21.10974136 28.07540126 21.51630041 29.63860384 20.96972656 32.80981445 C17.96972656 34.80981445 17.96972656 34.80981445 16.00097656 34.6809082 C8.98524983 31.67224078 3.6183565 20.57337462 -0.59277344 14.43481445 C-1.14191406 13.64985596 -1.69105469 12.86489746 -2.25683594 12.05615234 C-3.01287109 10.93261353 -3.01287109 10.93261353 -3.78417969 9.78637695 C-4.46975952 8.7821167 -4.46975952 8.7821167 -5.16918945 7.75756836 C-6.03027344 5.80981445 -6.03027344 5.80981445 -5.8581543 3.6862793 C-4.63275771 0.90881007 -3.07121378 -0.28769547 0 0 Z M-2.03027344 3.80981445 C-0.51304472 8.28563918 1.9478787 11.84903799 4.71972656 15.62231445 C5.16493652 16.23671387 5.61014648 16.85111328 6.06884766 17.48413086 C9.32169961 21.96166918 12.62095824 26.40354034 15.96972656 30.80981445 C16.62972656 30.47981445 17.28972656 30.14981445 17.96972656 29.80981445 C17.63763184 29.34196533 17.30553711 28.87411621 16.96337891 28.39208984 C15.42251694 26.21975774 13.88347629 24.04614323 12.34472656 21.87231445 C11.79510254 21.09702393 11.24547852 20.3217334 10.67919922 19.52294922 C7.35157456 14.81465136 4.10808606 10.07403316 1.05566406 5.1809082 C0.69730469 4.72844727 0.33894531 4.27598633 -0.03027344 3.80981445 C-0.69027344 3.80981445 -1.35027344 3.80981445 -2.03027344 3.80981445 Z " fill="#000606" transform="translate(144.0302734375,106.190185546875)"/>
<path d="M0 0 C1.875 1.75 1.875 1.75 3 4 C3 5.32 3 6.64 3 8 C1.27318563 8.50806447 -0.45657979 9.00610467 -2.1875 9.5 C-3.15042969 9.7784375 -4.11335938 10.056875 -5.10546875 10.34375 C-7.85345876 10.96677608 -10.19598416 11.12302812 -13 11 C-13.33 8.69 -13.66 6.38 -14 4 C-9.23780352 1.0397157 -5.70335928 -0.59409992 0 0 Z M-10 6 C-7.21176345 7.0326802 -6.1322726 7.04509293 -3.25 6.0625 C-2.5075 5.711875 -1.765 5.36125 -1 5 C-1 4.67 -1 4.34 -1 4 C-4.62528568 3.79859524 -6.86501708 4.14223235 -10 6 Z " fill="#000909" transform="translate(97,256)"/>
<path d="M0 0 C1.134375 0.020625 2.26875 0.04125 3.4375 0.0625 C3.54888159 5.52019811 3.35407981 10.67759359 2.4375 16.0625 C-0.9375 16.1875 -0.9375 16.1875 -4.5625 16.0625 C-6.5625 14.0625 -6.5625 14.0625 -6.8125 10.25 C-6.68129943 4.69920677 -6.14489387 0.10780516 0 0 Z M-1.5625 3.0625 C-3.0408226 6.01914519 -2.62282783 8.80479737 -2.5625 12.0625 C-1.9025 12.0625 -1.2425 12.0625 -0.5625 12.0625 C-0.2325 9.0925 0.0975 6.1225 0.4375 3.0625 C-0.2225 3.0625 -0.8825 3.0625 -1.5625 3.0625 Z " fill="#000909" transform="translate(215.5625,362.9375)"/>
<path d="M0 0 C5.28 0 10.56 0 16 0 C13.43580515 2.56419485 10.92936492 3.41376376 7.5625 4.75 C6.40878906 5.21921875 5.25507813 5.6884375 4.06640625 6.171875 C2.54853516 6.58179688 2.54853516 6.58179688 1 7 C0.01 6.34 -0.98 5.68 -2 5 C-1.34 3.35 -0.68 1.7 0 0 Z " fill="#001919" transform="translate(353,196)"/>
<path d="M0 0 C3.16115776 1.36983503 3.9927092 1.9890638 6 5 C3.36 6.98 0.72 8.96 -2 11 C-2.66 10.67 -3.32 10.34 -4 10 C-4 5.28093812 -2.71245796 3.72962969 0 0 Z " fill="#000D0D" transform="translate(141,312)"/>
</svg>
